HIERARCHY
ROOT joint_Root
{
	OFFSET 0.0 0.0 0.0
	CHANNELS 6 Xposition Yposition Zposition Zrotation Xrotation Yrotation 
	JOINT Hips
	{
		OFFSET 4.5925 91.4895 -427.239
		CHANNELS 6 Xposition Yposition Zposition Zrotation Xrotation Yrotation 
		JOINT Spine
		{
			OFFSET 15.7357 0.0 0.0
			CHANNELS 6 Xposition Yposition Zposition Zrotation Xrotation Yrotation 
			JOINT Chest
			{
				OFFSET 8.98455 -0.406207 0.0
				CHANNELS 6 Xposition Yposition Zposition Zrotation Xrotation Yrotation 
				JOINT Neck
				{
					OFFSET 16.3773 0.0 0.0
					CHANNELS 6 Xposition Yposition Zposition Zrotation Xrotation Yrotation 
					JOINT Head
					{
						OFFSET 6.45672 0.0 0.0
						CHANNELS 6 Xposition Yposition Zposition Zrotation Xrotation Yrotation 
						End Site
						{
							OFFSET 0.0 0.0 0.0
						}
					}
				}
				JOINT Shoulder_L
				{
					OFFSET 12.9942 -0.242716 4.98039
					CHANNELS 6 Xposition Yposition Zposition Zrotation Xrotation Yrotation 
					JOINT UpperArm_L
					{
						OFFSET 5.34809 0.0 0.0
						CHANNELS 6 Xposition Yposition Zposition Zrotation Xrotation Yrotation 
						JOINT LowerArm_L
						{
							OFFSET 24.3286 1.87007e-05 0.0
							CHANNELS 6 Xposition Yposition Zposition Zrotation Xrotation Yrotation 
							JOINT Hand_L
							{
								OFFSET 22.2916 0.0 0.0
								CHANNELS 6 Xposition Yposition Zposition Zrotation Xrotation Yrotation 
								End Site
								{
									OFFSET 0.0 0.0 0.0
								}
							}
						}
					}
				}
				JOINT Shoulder_R
				{
					OFFSET 12.9945 -0.242716 -4.98039
					CHANNELS 6 Xposition Yposition Zposition Zrotation Xrotation Yrotation 
					JOINT UpperArm_R
					{
						OFFSET -5.34813 0.0 0.0
						CHANNELS 6 Xposition Yposition Zposition Zrotation Xrotation Yrotation 
						JOINT LowerArm_R
						{
							OFFSET -24.3289 0.000322201 0.0
							CHANNELS 6 Xposition Yposition Zposition Zrotation Xrotation Yrotation 
							JOINT Hand_R
							{
								OFFSET -22.2915 -0.000108084 0.0
								CHANNELS 6 Xposition Yposition Zposition Zrotation Xrotation Yrotation 
								End Site
								{
									OFFSET 0.0 0.0 0.0
								}
							}
						}
					}
				}
			}
		}
		JOINT UpperLeg_L
		{
			OFFSET -2.19248 -6.46944 0.0
			CHANNELS 6 Xposition Yposition Zposition Zrotation Xrotation Yrotation 
			JOINT LowerLeg_L
			{
				OFFSET 39.0811 0.0 -1.23785e-05
				CHANNELS 6 Xposition Yposition Zposition Zrotation Xrotation Yrotation 
				JOINT Foot_L
				{
					OFFSET 40.9854 0.0 -1.26872e-05
					CHANNELS 6 Xposition Yposition Zposition Zrotation Xrotation Yrotation 
					JOINT Toes_L
					{
						OFFSET 11.7543 0.0 0.0
						CHANNELS 6 Xposition Yposition Zposition Zrotation Xrotation Yrotation 
						End Site
						{
							OFFSET 0.0 0.0 0.0
						}
					}
				}
			}
		}
		JOINT UpperLeg_R
		{
			OFFSET -2.19251 6.46944 0.0
			CHANNELS 6 Xposition Yposition Zposition Zrotation Xrotation Yrotation 
			JOINT LowerLeg_R
			{
				OFFSET -39.0811 -0.00228153 -0.0401928
				CHANNELS 6 Xposition Yposition Zposition Zrotation Xrotation Yrotation 
				JOINT Foot_R
				{
					OFFSET -40.9854 0.0 0.0
					CHANNELS 6 Xposition Yposition Zposition Zrotation Xrotation Yrotation 
					JOINT Toes_R
					{
						OFFSET -11.7543 0.0 0.0
						CHANNELS 6 Xposition Yposition Zposition Zrotation Xrotation Yrotation 
						End Site
						{
							OFFSET 0.0 0.0 0.0
						}
					}
				}
			}
		}
	}
}
MOTION
Frames:	8
Frame Time:	0.0333333
0.000000 0.000000 0.000000 0.000000 0.000000 -0.000000 -2.828050 90.521800 3.437280 89.336600 0.667133 7.079960 15.735700 0.000005 -0.000001 71.011700 88.537400 -71.738100 8.984550 -0.406207 -0.000000 -5.005340 -0.869930 -1.492070 16.377300 -0.000001 -0.000001 5.891320 -3.595300 1.960100 6.456720 -0.000001 -0.000000 -0.990880 -4.549480 4.012250 12.994200 -0.242716 4.980390 -81.121800 -13.989800 -57.131500 5.348090 -0.000007 -0.000001 -56.192500 -65.560200 -105.722000 24.328600 0.000019 0.000005 12.385400 6.314190 -63.392800 22.291600 -0.000001 0.000005 34.023900 5.345830 -1.230910 12.994500 -0.242716 -4.980390 95.269400 -11.470300 -65.119200 -5.348130 -0.000001 -0.000004 -54.077900 -68.078200 -96.274800 -24.328900 0.000322 -0.000009 -14.815700 -7.188200 -64.677700 -22.291500 -0.000108 -0.000004 35.507000 5.675500 -23.446900 -2.192480 -6.469440 -0.000000 -173.626000 -8.200590 -0.996513 39.081100 -0.000007 -0.000012 -0.239938 0.411772 30.229700 40.985400 -0.000006 -0.000013 -1.762970 5.307600 -71.950300 11.754300 -0.000000 0.000003 -0.000113 -0.001141 -16.621200 -2.192510 6.469440 -0.000001 177.421000 18.306500 179.955000 -39.081100 -0.002282 -0.040193 0.025575 -0.037531 30.689300 -40.985400 0.000008 0.000006 7.508180 8.270850 -73.713100 -11.754300 -0.000006 -0.000006 -0.001941 -0.027980 -17.710800
0.000000 0.000000 0.000000 0.000000 0.000000 -0.000000 -2.728310 90.618800 3.351260 89.392300 0.440984 6.690040 15.735700 0.000005 -0.000001 65.450400 88.706300 -66.187900 8.984550 -0.406207 -0.000000 -5.418950 -0.988905 -1.523190 16.377300 -0.000001 -0.000001 5.976860 -3.267400 1.915560 6.456720 -0.000001 -0.000000 -0.743421 -3.934770 4.028620 12.994200 -0.242716 4.980390 -80.704200 -14.536400 -56.890400 5.348090 -0.000007 -0.000001 -58.349300 -64.345000 -109.291000 24.328600 0.000019 0.000005 13.267100 6.601910 -64.004900 22.291600 -0.000001 0.000005 37.410300 5.364670 -1.821760 12.994500 -0.242716 -4.980390 95.666100 -11.717300 -63.962100 -5.348130 -0.000001 -0.000004 -49.475500 -66.876000 -93.632800 -24.328900 0.000322 -0.000009 -15.525700 -7.325350 -65.352300 -22.291500 -0.000108 -0.000004 37.026300 5.654730 -26.878700 -2.192480 -6.469440 -0.000000 -173.838000 -8.336840 -1.182720 39.081100 -0.000007 -0.000012 -0.233036 0.407637 29.755900 40.985400 -0.000006 -0.000013 -1.735570 5.141180 -71.679700 11.754300 -0.000000 0.000003 -0.000116 -0.001167 -16.622200 -2.192510 6.469440 -0.000001 177.440000 18.224100 179.528000 -39.081100 -0.002282 -0.040193 0.024696 -0.036358 30.474700 -40.985400 0.000008 0.000006 7.405610 8.479730 -73.304900 -11.754300 -0.000006 -0.000006 -0.002000 -0.028722 -17.741000
0.000000 0.000000 0.000000 0.000000 0.000000 -0.000000 -2.702450 90.610500 3.269310 89.382200 0.165379 6.840100 15.735700 0.000005 -0.000001 58.993000 88.635000 -59.716100 8.984550 -0.406207 -0.000000 -5.434930 -1.321350 -1.510510 16.377300 -0.000001 -0.000001 6.026780 -3.064210 2.028610 6.456720 -0.000001 -0.000000 -0.361279 -3.219740 4.016600 12.994200 -0.242716 4.980390 -81.113600 -13.835100 -56.821700 5.348090 -0.000007 -0.000001 -56.506900 -61.518200 -104.578000 24.328600 0.000019 0.000005 10.841000 6.742610 -58.472400 22.291600 -0.000001 0.000005 34.325200 5.314610 -0.308357 12.994500 -0.242716 -4.980390 95.339800 -11.123600 -64.151400 -5.348130 -0.000001 -0.000004 -44.477700 -64.279600 -86.691700 -24.328900 0.000322 -0.000009 -16.062300 -11.216100 -55.956000 -22.291500 -0.000108 -0.000004 31.536700 5.685600 -21.595800 -2.192480 -6.469440 -0.000000 -173.729000 -8.835570 -1.073920 39.081100 -0.000007 -0.000012 -0.235871 0.411105 29.845400 40.985400 -0.000006 -0.000013 -1.660510 5.350260 -71.682900 11.754300 -0.000000 0.000003 -0.000103 -0.001054 -16.618000 -2.192510 6.469440 -0.000001 177.401000 18.077100 179.603000 -39.081100 -0.002282 -0.040193 0.024431 -0.035869 30.502300 -40.985400 0.000008 0.000006 7.419930 8.609680 -73.351000 -11.754300 -0.000006 -0.000006 -0.002019 -0.028949 -17.750200
0.000000 0.000000 0.000000 0.000000 0.000000 -0.000000 -2.689940 90.566000 3.131460 89.349000 -0.158979 7.256900 15.735700 0.000005 -0.000001 59.050400 88.365400 -59.723100 8.984550 -0.406207 -0.000000 -4.972390 -1.604880 -1.416220 16.377300 -0.000001 -0.000001 5.681890 -3.001240 1.978320 6.456720 -0.000001 -0.000000 -0.378621 -2.736390 3.966540 12.994200 -0.242716 4.980390 -82.079500 -12.715700 -57.705400 5.348090 -0.000007 -0.000001 -50.785100 -59.416500 -91.812100 24.328600 0.000019 0.000005 6.083900 5.257290 -49.281600 22.291600 -0.000001 0.000005 28.121900 5.226130 2.109320 12.994500 -0.242716 -4.980390 94.662300 -10.276900 -65.435000 -5.348130 -0.000001 -0.000004 -40.499300 -62.109500 -77.479600 -24.328900 0.000322 -0.000009 -12.672100 -14.427300 -42.066300 -22.291500 -0.000108 -0.000004 25.135200 5.617590 -12.079000 -2.192480 -6.469440 -0.000000 -173.589000 -9.154060 -0.837890 39.081100 -0.000007 -0.000012 -0.236831 0.407550 30.161600 40.985400 -0.000006 -0.000013 -1.616600 5.413120 -71.780700 11.754300 -0.000000 0.000003 -0.000113 -0.001141 -16.621200 -2.192510 6.469440 -0.000001 177.357000 17.792800 179.853000 -39.081100 -0.002282 -0.040193 0.024389 -0.035581 30.654000 -40.985400 0.000008 0.000006 7.427820 8.626880 -73.510300 -11.754300 -0.000006 -0.000006 -0.002012 -0.028871 -17.747100
0.000000 0.000000 0.000000 0.000000 0.000000 -0.000000 -2.685200 90.555200 2.833700 89.314300 -0.342622 7.441220 15.735700 0.000005 -0.000001 62.817500 88.072100 -63.437900 8.984550 -0.406207 -0.000000 -4.345880 -1.694550 -1.305970 16.377300 -0.000001 -0.000001 5.061030 -3.012050 1.964060 6.456720 -0.000001 -0.000000 -0.920336 -2.649080 3.969000 12.994200 -0.242716 4.980390 -83.192900 -11.783300 -59.693300 5.348090 -0.000007 -0.000001 -42.278700 -57.253400 -73.587900 24.328600 0.000019 0.000005 2.578540 3.188170 -38.941400 22.291600 -0.000001 0.000005 21.584800 5.028360 6.757110 12.994500 -0.242716 -4.980390 93.888300 -9.334270 -67.264400 -5.348130 -0.000001 -0.000004 -36.041300 -60.209800 -64.653200 -24.328900 0.000322 -0.000009 -11.921500 -20.450800 -31.155500 -22.291500 -0.000108 -0.000004 22.326100 5.395400 -2.827070 -2.192480 -6.469440 -0.000000 -173.561000 -9.214340 -0.973074 39.081100 -0.000007 -0.000012 -0.237104 0.403779 30.422400 40.985400 -0.000006 -0.000013 -1.622050 5.286800 -71.712500 11.754300 -0.000000 0.000003 -0.000114 -0.001151 -16.621600 -2.192510 6.469440 -0.000001 177.427000 17.634500 179.716000 -39.081100 -0.002282 -0.040193 0.024933 -0.036241 30.833800 -40.985400 0.000008 0.000006 7.481500 8.644280 -73.459700 -11.754300 -0.000006 -0.000006 -0.002007 -0.028806 -17.744400
0.000000 0.000000 0.000000 0.000000 0.000000 -0.000000 -2.691750 90.565200 2.408070 89.238800 -0.512509 7.260160 15.735700 0.000005 -0.000001 66.513600 87.747600 -67.055000 8.984550 -0.406207 -0.000000 -3.643170 -1.740440 -1.138660 16.377300 -0.000001 -0.000001 4.291350 -3.131030 1.898620 6.456720 -0.000001 -0.000000 -2.059020 -2.675820 4.070610 12.994200 -0.242716 4.980390 -84.251400 -10.989500 -62.162400 5.348090 -0.000007 -0.000001 -33.703300 -53.390000 -53.929500 24.328600 0.000019 0.000005 0.878947 1.600800 -28.865200 22.291600 -0.000001 0.000005 18.143500 4.862430 10.134100 12.994500 -0.242716 -4.980390 93.162600 -8.193260 -68.809600 -5.348130 -0.000001 -0.000004 -41.504700 -60.028800 -58.668400 -24.328900 0.000322 -0.000009 -11.489800 -25.458600 -25.307100 -22.291500 -0.000108 -0.000004 23.983700 5.192490 2.881940 -2.192480 -6.469440 -0.000000 -173.564000 -9.265380 -1.585820 39.081100 -0.000007 -0.000012 -0.237372 0.400073 30.682000 40.985400 -0.000006 -0.000013 -1.627160 5.167100 -71.539700 11.754300 -0.000000 0.000003 -0.000103 -0.001058 -16.618100 -2.192510 6.469440 -0.000001 177.692000 17.503600 179.147000 -39.081100 -0.002282 -0.040193 0.026039 -0.037966 30.918100 -40.985400 0.000008 0.000006 7.566630 8.607110 -73.330700 -11.754300 -0.000006 -0.000006 -0.002018 -0.028947 -17.750200
0.000000 0.000000 0.000000 0.000000 0.000000 -0.000000 -2.645540 90.593800 2.032300 89.218800 -0.734231 7.158650 15.735700 0.000005 -0.000001 66.677900 87.432400 -67.109700 8.984550 -0.406207 -0.000000 -3.058530 -1.991420 -0.917123 16.377300 -0.000001 -0.000001 3.948540 -3.078490 2.213720 6.456720 -0.000001 -0.000000 -3.514290 -2.466130 4.018640 12.994200 -0.242716 4.980390 -85.198400 -9.831410 -63.805000 5.348090 -0.000007 -0.000001 -34.725800 -51.792700 -43.075700 24.328600 0.000019 0.000005 3.185000 7.183650 -23.991100 22.291600 -0.000001 0.000005 15.668100 4.705250 13.059400 12.994500 -0.242716 -4.980390 92.225300 -5.982080 -69.550200 -5.348130 -0.000001 -0.000004 -46.489400 -60.732900 -55.403600 -24.328900 0.000322 -0.000009 -11.167700 -26.896200 -23.574600 -22.291500 -0.000108 -0.000004 24.888800 4.949940 8.382450 -2.192480 -6.469440 -0.000000 -173.654000 -9.333050 -1.989590 39.081100 -0.000007 -0.000012 -0.231535 0.388741 30.778500 40.985400 -0.000006 -0.000013 -1.615500 4.977150 -71.334600 11.754300 -0.000000 0.000003 -0.000102 -0.001048 -16.617700 -2.192510 6.469440 -0.000001 177.779000 17.501700 178.768000 -39.081100 -0.002282 -0.040193 0.025305 -0.036799 30.878400 -40.985400 0.000008 0.000006 7.583930 8.825800 -73.188700 -11.754300 -0.000006 -0.000006 -0.002008 -0.028816 -17.744800
0.000000 0.000000 0.000000 0.000000 0.000000 -0.000000 -2.599470 90.536600 1.817960 89.098800 -1.005670 7.304530 15.735700 0.000005 -0.000001 66.810300 87.212100 -67.162500 8.984550 -0.406207 -0.000000 -2.648060 -2.162860 -0.754584 16.377300 -0.000001 -0.000001 4.195060 -2.964970 2.615140 6.456720 -0.000001 -0.000000 -4.195830 -2.414980 4.121170 12.994200 -0.242716 4.980390 -85.838300 -8.235670 -63.070700 5.348090 -0.000007 -0.000001 -44.063900 -54.177700 -45.980200 24.328600 0.000019 0.000005 2.871300 6.807260 -22.935300 22.291600 -0.000001 0.000005 15.759100 4.616760 14.620900 12.994500 -0.242716 -4.980390 91.900500 -4.986930 -69.107000 -5.348130 -0.000001 -0.000004 -52.693400 -60.869800 -57.400100 -24.328900 0.000322 -0.000009 -10.163500 -25.583000 -22.543800 -22.291500 -0.000108 -0.000004 23.816700 4.783110 11.629100 -2.192480 -6.469440 -0.000000 -173.536000 -9.471040 -2.192490 39.081100 -0.000007 -0.000012 -0.238208 0.392339 31.264400 40.985400 -0.000006 -0.000013 -1.597840 4.853030 -71.454100 11.754300 -0.000000 0.000003 -0.000095 -0.000983 -16.615300 -2.192510 6.469440 -0.000001 177.865000 17.429900 178.722000 -39.081100 -0.002282 -0.040193 0.022565 -0.032061 31.002000 -40.985400 0.000008 0.000006 7.646100 8.959200 -73.402400 -11.754300 -0.000006 -0.000006 -0.002275 -0.032106 -17.878700
